<svg xmlns="http://www.w3.org/2000/svg" viewBox="0 0 240 240" width="100%" height="100%">
  <defs>
    <linearGradient id="iconGrad" x1="0%" y1="100%" x2="100%" y2="0%">
      <stop offset="0%" stop-color="#00d2ff" />
      <stop offset="50%" stop-color="#3a7bd5" />
      <stop offset="100%" stop-color="#8e2de2" />
    </linearGradient>
  </defs>
  <g transform="translate(10, 15)">
    <!-- Smooth Crescent Moon -->
    <path d="M 115,15 C 160,15 190,50 175,100 C 160,150 110,180 60,160 C 95,160 140,135 145,95 C 150,55 115,25 115,15 Z" fill="url(#iconGrad)" />
    <!-- Sweeping Orbit Trajectory Loop -->
    <path d="M 45,135 C 50,175 105,185 155,135 C 188,102 198,58 170,30" fill="none" stroke="url(#iconGrad)" stroke-width="10" stroke-linecap="round" />
    <!-- Constellation Node Vertices -->
    <circle cx="92" cy="65" r="5" fill="#00d2ff" />
    <circle cx="110" cy="98" r="5" fill="#00d2ff" />
    <circle cx="132" cy="135" r="5" fill="#00d2ff" />
    <!-- Trajectory Energy Dots -->
    <circle cx="180" cy="42" r="5" fill="#3a7bd5" />
    <circle cx="192" cy="28" r="7" fill="#8e2de2" />
    <circle cx="204" cy="12" r="9" fill="#8e2de2" />
  </g>
</svg>
